<svg xmlns="http://www.w3.org/2000/svg" xmlns:xlink="http://www.w3.org/1999/xlink" version="1.1" id="Outline" x="0px" y="0px" viewBox="0 0 512 512" enable-background="new 0 0 512 512" xml:space="preserve" width="512"  height="512" >
<path d="M9.732,196.438l57.652-7.199l3.44,9.474l-47.108,5.881c-2.684,0.336-5.016,2-6.199,4.434  c-1.184,2.43-1.062,5.293,0.328,7.613c0.953,1.59,22.715,36.941,72.195,36.941c1.682,0,3.46-0.13,5.206-0.214  c5.723,4.909,12.799,7.584,20.044,7.581c2.22,0,4.434-0.326,6.628-0.804c1.036,8.75,3.769,17.33,8.297,25.16l45.16,78.164  c0.746,1.91,1.125,3.926,1.125,5.992V500.5c0,4.418,3.582,8,8,8h144c4.418,0,8-3.582,8-8V369.621c0-1.668,0.516-3.281,1.512-4.691  c18.363-26.199,31.246-55.359,38.293-86.672c2.441-10.832,4.145-21.969,5.066-33.098c0.363-4.402-2.91-8.27-7.312-8.633  c-4.504-0.406-8.273,2.91-8.633,7.312c-0.859,10.395-2.449,20.789-4.73,30.902c-6.586,29.27-18.625,56.523-35.766,80.98  c-2.898,4.098-4.43,8.902-4.43,13.898V492.5h-128V369.461c0-4.363-0.859-8.613-2.551-12.629c-0.129-0.305-0.277-0.605-0.445-0.895  l-45.438-78.645c-8.844-15.281-8.895-34.332-0.141-49.703l35.27-61.742c5.035-8.754,15.879-12.605,24.984-9.055l78.945,34.438  c3.133,1.418,4.836,4.996,3.895,8.098c-0.996,3.211-2.402,5.738-4.238,7.578c-5.195,5.289-36.215,0.105-79.207-17.793  c-4.078-1.68-8.727,0.258-10.426,4.324c-1.699,4.082,0.266,8.777,4.344,10.477c3.774,1.571,7.673,3.13,11.622,4.66l-22.27,22.27  c-3.125,3.125-3.125,8.188,0,11.312c1.562,1.562,3.609,2.344,5.656,2.344s4.094-0.781,5.656-2.344l7.531-7.531  c23.205,11.524,55.864,35.961,50.863,80.992c-0.488,4.391,2.676,8.348,7.066,8.832c0.301,0.035,0.598,0.051,0.895,0.051  c4.02,0,7.484-3.027,7.938-7.117c5.823-52.397-30.791-81.37-54.928-94.592l8.182-8.182c4.968,1.673,9.926,3.206,14.797,4.554v1.336  c0,17.645,14.355,32,32,32c8.535,0,16.566-3.332,22.617-9.383c1.501-1.501,2.832-3.127,3.989-4.851  c4.793,3.839,10.79,6.233,17.394,6.233c9.459,0,17.803-4.745,22.875-11.949c3.777,2.481,8.278,3.949,13.125,3.949  c6.827,0,12.961-2.897,17.335-7.488c1.29,0.068,2.594,0.117,3.88,0.195c23.758,1.387,43.676,2.105,60.258,2.105  c41.141,0,61.699-4.418,69.109-13.938c3.66-4.766,6.367-10.469,8.086-17.125c1.797-7.66,1.797-15.758-0.035-23.559  c-1.629-6.402-4.32-12.125-8.086-17.109c-10.349-13.288-45.457-16.561-128.258-11.846c-3.513-8.901-12.153-15.236-22.289-15.236  c-3.527,0-6.852,0.809-9.872,2.181c-3.997-10.59-14.158-18.181-26.128-18.181c-5.266,0-10.141,1.549-14.353,4.088  c-4.74-11.751-16.218-20.088-29.647-20.088c-7.655,0-14.822,2.807-20.601,7.725c-5.588-9.369-15.72-15.725-27.399-15.725  c-8.535,0-16.566,3.332-22.617,9.383s-9.383,14.082-9.383,22.617v15.454c-7.165,0.93-13.959,3.923-19.471,8.702  c-30.128-8.406-55.419-21.351-68.1-28.554c-4.297-2.438-8.727-3.777-13.078-3.984c-73.43-4.426-90.754,69.898-90.922,70.648  c-0.566,2.539,0.141,5.195,1.891,7.117C4.572,195.809,7.126,196.773,9.732,196.438z M76.425,214.136l8.412,23.167  c-21.686-1.401-36.224-10.876-44.527-18.658L76.425,214.136z M272.501,236.5c-8,0-14.586-5.917-15.757-13.594  c12.766,2.297,23.945,2.451,31.612-0.933c-0.342,3.702-1.878,7.16-4.551,9.832C280.779,234.832,276.763,236.5,272.501,236.5z   M490.353,169.32c2.434,3.223,4.16,6.922,5.238,11.168c1.234,5.266,1.234,10.84,0.043,15.93c-1.133,4.387-2.898,8.16-5.207,11.168  c-3.43,4.404-22.891,10.966-114.009,5.742c0.01-0.281,0.083-0.544,0.083-0.828v-48.828  C467.328,158.614,487.008,165.025,490.353,169.32z M352.501,148.5c4.41,0,8,3.59,8,8v56c0,4.41-3.59,8-8,8s-8-3.59-8-8v-56  C344.501,152.09,348.091,148.5,352.501,148.5z M316.501,132.5c6.617,0,12,5.383,12,12v72c0,6.617-5.383,12-12,12s-12-5.383-12-12  v-72C304.501,137.883,309.884,132.5,316.501,132.5z M213.197,113.195c3.027-3.027,7.043-4.695,11.305-4.695c8.824,0,16,7.176,16,16  v16c0,4.418,3.582,8,8,8s8-3.582,8-8v-8c0-4.262,1.668-8.277,4.695-11.305s7.043-4.695,11.305-4.695c8.824,0,16,7.176,16,16v43.621  l-78.211-34.113c-0.587-0.229-1.196-0.317-1.789-0.514V124.5C208.501,120.238,210.169,116.223,213.197,113.195z M90.997,132.094  c1.891,0.09,3.977,0.754,6.031,1.922c12.488,7.093,36.608,19.507,65.737,28.343l-32.737,57.302  c-4.215,7.402-6.842,15.454-7.966,23.668c-6.061,2.982-13.438,1.695-18.194-3.657c-1.262-1.309-2.223-2.891-2.883-4.777  L82.419,183.77c-2.57-7.078-9.586-11.402-17.07-10.406l-45.09,5.633C27.47,161.32,46.724,129.367,90.997,132.094z"/>
<path d="M464.708,212.531c13.234,0,24-10.766,24-24s-10.766-24-24-24s-24,10.766-24,24S451.474,212.531,464.708,212.531z   M464.708,180.531c4.41,0,8,3.59,8,8s-3.59,8-8,8s-8-3.59-8-8S460.298,180.531,464.708,180.531z"/>
</svg>